<?xml version="1.0" standalone="no"?>
<!DOCTYPE svg PUBLIC "-//W3C//DTD SVG 20010904//EN"
 "http://www.w3.org/TR/2001/REC-SVG-20010904/DTD/svg10.dtd">
<svg version="1.0" xmlns="http://www.w3.org/2000/svg"
 width="1280.000000pt" height="1280.000000pt" viewBox="0 0 1280.000000 1280.000000"
 preserveAspectRatio="xMidYMid meet">
<metadata>
Created by potrace 1.15, written by Peter Selinger 2001-2017
</metadata>
<g transform="translate(0.000000,1280.000000) scale(0.100000,-0.100000)"
fill="#000000" stroke="none">
<path d="M2058 11363 l-208 -208 0 -5026 c0 -3895 3 -5028 12 -5037 7 -7 23
-12 36 -12 14 0 31 -8 38 -17 12 -17 106 -18 1696 -21 1692 -3 2047 2 2418 33
866 73 1580 259 2205 575 455 229 803 486 1200 884 504 506 823 998 1060 1636
312 838 429 1939 329 3100 -96 1121 -416 2016 -966 2702 -105 130 -302 334
-438 451 -686 593 -1620 959 -2790 1092 -438 49 -402 48 -2455 52 l-1930 4
-207 -208z m3832 -1967 c427 -46 727 -110 1020 -218 447 -165 727 -381 963
-743 309 -476 483 -1057 537 -1800 13 -182 13 -726 0 -913 -55 -773 -240
-1408 -550 -1886 -81 -125 -143 -173 -380 -292 -396 -199 -858 -305 -1500
-344 -91 -5 -519 -10 -952 -10 l-788 0 0 3089 c0 2046 3 3099 10 3116 l10 27
738 -5 c596 -3 767 -7 892 -21z"/>
</g>
</svg>
